# xmcd
#
# Track frame offsets:
#	150
#	12601
#	29903
#	44729
#	57624
#	72226
#	91223
#	104321
#	119731
#	135322
#	146272
#	159073
#
# Disc length: 2310 seconds
#
# Revision: 1
# Processed by: cddbd v1.5.1PL0 Copyright (c) Steve Scherf et al.
# Submitted via: EasyCDDAExtractor 5.0.7
#
DISCID=ad09040c
DTITLE=Hert LeBlanc - Roi du gros tyme
DYEAR=2004
DGENRE=Country
TTITLE0=Su la ligne à harde 
TTITLE1=Disco et Fais Do Do
TTITLE2=Après marcher le plancher
TTITLE3=Ruisseau salé
TTITLE4=Mama Rosin
TTITLE5=Le bouquet de mon coeur
TTITLE6=Le vieux Mazerolle
TTITLE7=Lâche pas la patate
TTITLE8=50/50
TTITLE9=Le jour de ton retour
TTITLE10=Ah! si mon moine voulait danser
TTITLE11=A ma mère
EXTD=
EXTT0=
EXTT1=
EXTT2=
EXTT3=
EXTT4=
EXTT5=
EXTT6=
EXTT7=
EXTT8=
EXTT9=
EXTT10=
EXTT11=
PLAYORDER=
